<?xml version="1.0" encoding="UTF-8" standalone="no"?>
<!-- Created with Inkscape (http://www.inkscape.org/) -->

<svg
   version="1.0"
   width="200"
   height="200"
   id="svg2"
   sodipodi:docname="wine.svg"
   inkscape:version="1.2.1 (9c6d41e410, 2022-07-14)"
   xmlns:inkscape="http://www.inkscape.org/namespaces/inkscape"
   xmlns:sodipodi="http://sodipodi.sourceforge.net/DTD/sodipodi-0.dtd"
   xmlns="http://www.w3.org/2000/svg"
   xmlns:svg="http://www.w3.org/2000/svg">
  <sodipodi:namedview
     id="namedview60"
     pagecolor="#ffffff"
     bordercolor="#666666"
     borderopacity="1.0"
     inkscape:showpageshadow="2"
     inkscape:pageopacity="0.0"
     inkscape:pagecheckerboard="0"
     inkscape:deskcolor="#d1d1d1"
     showgrid="false"
     inkscape:zoom="1.0989975"
     inkscape:cx="144.22235"
     inkscape:cy="127.84379"
     inkscape:window-width="1268"
     inkscape:window-height="1000"
     inkscape:window-x="0"
     inkscape:window-y="0"
     inkscape:window-maximized="1"
     inkscape:current-layer="svg2" />
  <defs
     id="defs5" />
  <rect
     style="fill:#ffffff;fill-opacity:1;stroke:none;stroke-width:4.75195;stroke-opacity:1"
     id="rect1211"
     width="200"
     height="200"
     x="0"
     y="0" />
  <g
     transform="matrix(0.39044264,0,0,0.39044264,-27.143293,18.705311)"
     id="g2188">
    <path
       d="m 298.5562,93.726289 -18.65977,98.523551 22.01853,72.02668 50.38135,-16.79379 30.60201,-32.84118 40.30509,-100.76272 -11.94225,-11.56905 -67.54834,22.01852 z"
       style="fill:#992b2b"
       id="path2186" />
    <path
       d="m 341.25,12.8125 c -11.02203,-0.02539 -19.49745,1.777051 -23,5.65625 -5.55688,6.154435 -18.3467,52.050021 -34.3125,122.1875 -11.51895,50.47049 -3.52716,79.90391 4.34375,95.65625 10.06277,20.13898 17.90523,32.24808 2,72.4375 -11.51919,29.10677 -23.27205,34.67754 -34.1875,36.0625 -26.30578,-6.32575 -46.15728,-6.55239 -48.75,0.5625 -3.54667,9.73271 26.46865,29.46061 67,44.0625 40.53134,14.60188 76.32833,18.57646 79.875,8.84375 2.6012,-7.13815 -12.89899,-19.66187 -37.3125,-31.59375 -10.71743,-11.04279 -20.33097,-18.73413 -11.84375,-52.9375 16.60347,-66.91167 41.93037,-43.9146 71.78125,-85.5 25.32136,-35.27531 32.02618,-62.3403 46.6875,-103.6875 C 439.06536,80.753941 445.88577,60.473586 443.875,56.46875 430.3319,29.49505 374.31609,12.888669 341.25,12.8125 Z M 343.53125,22 c 12.31878,0.108004 27.97868,2.796486 40.6875,7.34375 27.23671,9.745396 51.81736,23.366255 50.375,31.53125 -3.64538,20.635847 -11.60132,37.492501 -13.625,43.3125 -26.63519,-25.761649 -60.83865,51.11942 -115.6875,-12.5 0,10e-7 10.48814,-40.415171 17.71875,-63.46875 1.38151,-4.404692 9.66174,-6.314048 20.53125,-6.21875 z m -40.125,79.9375 c 55.49114,60.7197 94.23203,-15.160361 114.5625,11.1875 C 411.00639,135.99208 369.04606,274.44997 313.125,249.71875 266.80109,229.52626 293.62779,126.57117 303.40625,101.9375 Z"
       style="fill:#000000"
       id="path2175" />
  </g>
</svg>
