<?xml version="1.0" encoding="utf-8"?>
<!-- Generator: Adobe Illustrator 26.5.0, SVG Export Plug-In . SVG Version: 6.00 Build 0)  -->
<svg version="1.0" id="katman_1" xmlns="http://www.w3.org/2000/svg" xmlns:xlink="http://www.w3.org/1999/xlink" x="0px" y="0px"
	 viewBox="0 0 1190.55 841.89" style="enable-background:new 0 0 1190.55 841.89;" xml:space="preserve">
<style type="text/css">
	.st0{fill:#6AB540;}
	.st1{fill:#FFFFFF;}
</style>
<sodipodi:namedview  bordercolor="#666666" borderopacity="1" gridtolerance="10" guidetolerance="10" id="namedview17" objecttolerance="10" pagecolor="#ffffff" showgrid="false">
	</sodipodi:namedview>
<circle id="path32" class="st0" cx="193.54" cy="420.5" r="118"/>
<path id="path4193" class="st1" d="M123.54,355.5v90c0,21.97,18.03,40,40,40h60c21.97,0,40-18.03,40-40v-50c0-16.45-13.55-30-30-30
	c-7.68,0-14.67,3.04-20,7.87c-5.33-4.83-12.32-7.87-20-7.87c-16.45,0-30,13.55-30,30v50h20v-50c0-5.64,4.36-10,10-10s10,4.36,10,10
	v50h20v-50c0-5.64,4.36-10,10-10s10,4.36,10,10v50c0,11.16-8.84,20-20,20h-60c-11.16,0-20-8.84-20-20v-90H123.54z"/>
<g id="g923">
	<path id="path868" class="st0" d="M390.35,486.22c-10.7-0.25-18.29-2.55-22.77-6.91c-4.48-4.36-6.72-11.14-6.72-20.35V342.49
		l17.36-2.99v116.67c0,2.86,0.25,5.23,0.75,7.09c0.5,1.87,1.31,3.36,2.43,4.48s2.61,1.99,4.48,2.61c1.87,0.5,4.17,0.93,6.91,1.31
		L390.35,486.22z"/>
	<path id="path870" class="st0" d="M427.55,484.35h-17.36v-97.07h17.36L427.55,484.35z M418.78,369.74c-3.11,0-5.79-1-8.03-2.99
		c-2.12-2.12-3.17-4.92-3.17-8.4c0-3.48,1.06-6.22,3.17-8.21c2.24-2.12,4.92-3.17,8.03-3.17c3.11,0,5.72,1.06,7.84,3.17
		c2.24,1.99,3.36,4.73,3.36,8.21c0,3.48-1.12,6.28-3.36,8.4C424.5,368.74,421.89,369.74,418.78,369.74z"/>
	<path id="path872" class="st0" d="M455.42,390.09c3.98-1,9.27-2.05,15.87-3.17s14.19-1.68,22.77-1.68c7.72,0,14.12,1.12,19.23,3.36
		c5.1,2.12,9.15,5.16,12.13,9.15c3.11,3.86,5.29,8.52,6.53,14c1.24,5.48,1.87,11.51,1.87,18.11v54.51h-17.36v-50.77
		c0-5.97-0.44-11.08-1.31-15.31c-0.75-4.23-2.05-7.65-3.92-10.27c-1.87-2.61-4.36-4.48-7.47-5.6c-3.11-1.24-6.97-1.87-11.57-1.87
		c-1.87,0-3.8,0.06-5.79,0.19s-3.92,0.31-5.79,0.56c-1.74,0.12-3.36,0.31-4.85,0.56c-1.37,0.25-2.36,0.44-2.99,0.56v81.95h-17.36
		L455.42,390.09z"/>
	<path id="path874" class="st0" d="M636.85,481.55c-3.98,1-9.27,2.05-15.87,3.17c-6.47,1.12-14,1.68-22.59,1.68
		c-7.47,0-13.75-1.06-18.85-3.17c-5.1-2.24-9.21-5.35-12.32-9.33s-5.35-8.65-6.72-14c-1.37-5.48-2.05-11.51-2.05-18.11v-54.51h17.36
		v50.77c0,11.82,1.87,20.28,5.6,25.39s10.02,7.65,18.85,7.65c1.87,0,3.8-0.06,5.79-0.19c1.99-0.12,3.86-0.25,5.6-0.37
		c1.74-0.25,3.3-0.44,4.67-0.56c1.49-0.25,2.55-0.5,3.17-0.75v-81.95h17.36L636.85,481.55z"/>
	<path id="path876" class="st0" d="M722.27,484.35c-1.37-2.74-3.05-5.79-5.04-9.15c-1.99-3.36-4.17-6.78-6.53-10.27
		c-2.36-3.61-4.79-7.16-7.28-10.64c-2.49-3.48-4.92-6.78-7.28-9.89c-2.36,3.11-4.79,6.47-7.28,10.08
		c-2.49,3.48-4.92,7.03-7.28,10.64c-2.24,3.48-4.36,6.91-6.35,10.27c-1.99,3.36-3.67,6.35-5.04,8.96h-17.92
		c4.36-8.46,9.52-17.05,15.49-25.76c6.1-8.84,12.13-17.24,18.11-25.2l-32.11-46.11h19.6l23.15,33.97l23.33-33.97h18.48l-31.36,44.99
		c5.97,8.09,12.07,16.68,18.29,25.76c6.35,8.96,11.7,17.73,16.05,26.32L722.27,484.35z"/>
	<path id="path878" class="st0" d="M757.6,390.09c3.98-1,9.21-2.05,15.68-3.17c6.6-1.12,14.19-1.68,22.77-1.68
		c6.22,0,11.45,0.87,15.68,2.61c4.23,1.62,7.78,4.04,10.64,7.28c0.87-0.62,2.24-1.49,4.11-2.61s4.17-2.18,6.91-3.17
		c2.74-1.12,5.79-2.05,9.15-2.8c3.36-0.87,6.97-1.31,10.83-1.31c7.47,0,13.56,1.12,18.29,3.36c4.73,2.12,8.4,5.16,11.01,9.15
		c2.74,3.98,4.54,8.71,5.41,14.19c1,5.48,1.49,11.45,1.49,17.92v54.51h-17.36v-50.77c0-5.72-0.31-10.64-0.93-14.75
		c-0.5-4.11-1.56-7.53-3.17-10.27c-1.49-2.74-3.61-4.73-6.35-5.97c-2.61-1.37-6.04-2.05-10.27-2.05c-5.85,0-10.7,0.81-14.56,2.43
		c-3.73,1.49-6.28,2.86-7.65,4.11c1,3.24,1.74,6.78,2.24,10.64c0.5,3.86,0.75,7.9,0.75,12.13v54.51h-17.36v-50.77
		c0-5.72-0.31-10.64-0.93-14.75c-0.62-4.11-1.74-7.53-3.36-10.27c-1.49-2.74-3.61-4.73-6.35-5.97c-2.61-1.37-5.97-2.05-10.08-2.05
		c-1.74,0-3.61,0.06-5.6,0.19s-3.92,0.31-5.79,0.56c-1.74,0.12-3.36,0.31-4.85,0.56c-1.49,0.25-2.49,0.44-2.99,0.56v81.95H757.6
		L757.6,390.09z"/>
	<path id="path880" class="st0" d="M933.68,484.35h-17.36v-97.07h17.36L933.68,484.35z M924.91,369.74c-3.11,0-5.79-1-8.03-2.99
		c-2.12-2.12-3.17-4.92-3.17-8.4c0-3.48,1.06-6.22,3.17-8.21c2.24-2.12,4.92-3.17,8.03-3.17s5.72,1.06,7.84,3.17
		c2.24,1.99,3.36,4.73,3.36,8.21c0,3.48-1.12,6.28-3.36,8.4C930.63,368.74,928.02,369.74,924.91,369.74z"/>
	<path id="path882" class="st0" d="M961.55,390.09c3.98-1,9.27-2.05,15.87-3.17s14.19-1.68,22.77-1.68c7.72,0,14.12,1.12,19.23,3.36
		c5.1,2.12,9.15,5.16,12.13,9.15c3.11,3.86,5.29,8.52,6.53,14c1.24,5.48,1.87,11.51,1.87,18.11v54.51h-17.36v-50.77
		c0-5.97-0.44-11.08-1.31-15.31c-0.75-4.23-2.05-7.65-3.92-10.27c-1.87-2.61-4.36-4.48-7.47-5.6c-3.11-1.24-6.97-1.87-11.57-1.87
		c-1.87,0-3.8,0.06-5.79,0.19c-1.99,0.12-3.92,0.31-5.79,0.56c-1.74,0.12-3.36,0.31-4.85,0.56c-1.37,0.25-2.36,0.44-2.99,0.56v81.95
		h-17.36V390.09z"/>
	<path id="path884" class="st0" d="M1082.43,387.29h36.77v14.56h-36.77v44.8c0,4.85,0.37,8.9,1.12,12.13
		c0.75,3.11,1.87,5.6,3.36,7.47c1.49,1.74,3.36,2.99,5.6,3.73c2.24,0.75,4.85,1.12,7.84,1.12c5.23,0,9.4-0.56,12.51-1.68
		c3.24-1.24,5.48-2.12,6.72-2.61l3.36,14.37c-1.74,0.87-4.79,1.93-9.15,3.17c-4.36,1.37-9.33,2.05-14.93,2.05
		c-6.6,0-12.07-0.81-16.43-2.43c-4.23-1.74-7.65-4.29-10.27-7.65c-2.61-3.36-4.48-7.47-5.6-12.32c-1-4.98-1.49-10.7-1.49-17.17
		v-86.61l17.36-2.99L1082.43,387.29z"/>
</g>
</svg>
