<?xml version="1.0" encoding="UTF-8"?>
<svg xmlns="http://www.w3.org/2000/svg" viewBox="0 0 128 128">
  <defs>
    <style>
      .cls-1{fill:#273f8f}
      .cls-2{fill:#7890e3}
      .cls-3{fill:#fff}
      .cls-4{fill:#538dff}
      .cls-5{fill:#253d91}
      .cls-6{fill:#4eb5ff}
    </style>
  </defs>
  <path class="cls-3" d="M73.58,18.09c1.44-1.44,1.38-3.62,0-5l-7.04-7.04c-1.38-1.38-3.62-1.38-5.01,0l-23.29,23.25c-1.96,1.96-2.52,4.79-1.69,7.26-2.47-.83-5.3-.27-7.26,1.69L6.02,61.56c-1.36,1.37-1.36,3.58,0,4.94l7.11,7.11c1.36,1.36,3.99,1.04,4.99.04-1.13,1.13-1.36,3.58,0,4.94l19.22,19.22c.35.35.75.6,1.18.77.17.43.43.83.78,1.18l22.22,22.22c1.38,1.38,3.61,1.38,4.99,0l9.71-9.71-.76-.76c1.25-.29,2.43-.91,3.4-1.88h0s20.75-20.79,20.75-20.79c.97-.97,1.59-2.16,1.87-3.4l.78.78,19.84-19.84c1.32-1.32,1.32-3.45,0-4.77l-22.44-22.44c-.69-.69-1.6-1.01-2.5-.98-.29-1.25-.91-2.43-1.88-3.4l-16.66-16.66c-1.38-1.38-3.55-1.54-5.05-.04Z"/>
  <path class="cls-6" d="M11.57,62.05c-1.09,1.09-1.09,2.87,0,3.96l2.05,2.05c1.09,1.09,2.87,1.09,3.96,0l14.6-14.6c1.09-1.09,2.87-1.09,3.96,0l2.12,2.12c1.09,1.09,1.09,2.87,0,3.96l-14.6,14.6c-1.09,1.09-1.09,2.87,0,3.96l14.17,14.17c1.09,1.09,2.87,1.09,3.96,0l2.21-2.21c1.09-1.09,1.09-2.87,0-3.96l-8.15-8.15c-1.09-1.09-1.09-2.87,0-3.96l14.6-14.6c1.09-1.09,1.09-2.87,0-3.96l-14.17-14.17c-1.09-1.09-2.87-1.09-3.96,0l-20.75,20.79Z"/>
  <path class="cls-2" d="M45.62,76.39c-1.09,1.09-1.09,2.87,0,3.96l2.05,2.05c1.09,1.09,2.87,1.09,3.96,0l14.6-14.6c1.09-1.09,2.87-1.09,3.96,0l2.13,2.13c1.09,1.09,1.09,2.87,0,3.96l-14.6,14.6c-1.09,1.09-1.09,2.87,0,3.96l14.17,14.17c1.09,1.09,2.87,1.09,3.96,0l20.75-20.79c1.09-1.09,1.09-2.87,0-3.96l-2.05-2.05c-1.09-1.09-2.87-1.09-3.96,0l-14.6,14.6c-1.09,1.09-2.87,1.09-3.96,0l-2.12-2.12c-1.09-1.09-1.09-2.87,0-3.96l14.6-14.6c1.09-1.09,1.09-2.87,0-3.96l-14.15-14.15c-1.09-1.09-2.87-1.09-3.96,0l-20.77,20.77Z"/>
  <path class="cls-5" d="M41.54,100.42h29.95v5.93c0,1.55-1.25,2.8-2.8,2.8h-24.35c-1.55,0-2.8-1.25-2.8-2.8v-5.93h0Z" transform="translate(90.64 -9.27) rotate(45)"/>
  <path class="cls-1" d="M87.61,50.07h24.35c1.55,0,2.8,1.25,2.8,2.8v20.09h-29.95v-20.09c0-1.55,1.25-2.8,2.8-2.8Z" transform="translate(72.72 -52.54) rotate(45)"/>
  <path class="cls-4" d="M68.07,17.57c1.09-1.09,1.09-2.87,0-3.96l-2.05-2.05c-1.09-1.09-2.87-1.09-3.96,0l-20.79,20.75c-1.09,1.09-1.09,2.87,0,3.96l14.17,14.17c1.09,1.09,2.87,1.09,3.96,0l14.6-14.6c1.09-1.09,2.87-1.09,3.96,0l2.13,2.13c1.09,1.09,1.09,2.87,0,3.96l-6.06,6.06c-1.09,1.09-1.09,2.87,0,3.96l2.05,2.05c1.09,1.09,2.87,1.09,3.96,0l12.24-12.22c1.09-1.09,1.09-2.87,0-3.96l-14.17-14.17c-1.09-1.09-2.87-1.09-3.96,0l-14.6,14.6c-1.09,1.09-2.87,1.09-3.96,0l-2.12-2.12c-1.09-1.09-1.09-2.87,0-3.96l14.6-14.6Z"/>
</svg>