<?xml version="1.0" encoding="UTF-8"?>
<!-- Generator: Adobe Illustrator 24.2.1, SVG Export Plug-In . SVG Version: 6.00 Build 0)  -->
<svg version="1.1" xmlns="http://www.w3.org/2000/svg" xmlns:xlink="http://www.w3.org/1999/xlink" x="0px" y="0px" viewBox="0 0 256 256" style="enable-background:new 0 0 256 256;" xml:space="preserve">
<style type="text/css">
	.st0{fill:url(#SVGID_1_);}
	.st1{fill:#FFFFFF;}
</style>
<g id="Fill">
	<radialGradient id="SVGID_1_" cx="-6.5882" cy="0" r="392.7657" gradientUnits="userSpaceOnUse">
		<stop offset="0" style="stop-color:#814A9D"/>
		<stop offset="0.2833" style="stop-color:#6A5BA7"/>
		<stop offset="0.4979" style="stop-color:#5963AD"/>
		<stop offset="0.5741" style="stop-color:#5768B0"/>
		<stop offset="0.7044" style="stop-color:#5376BA"/>
		<stop offset="0.8719" style="stop-color:#488ECC"/>
		<stop offset="0.9441" style="stop-color:#409AD5"/>
	</radialGradient>
	<rect class="st0" width="256" height="256"/>
</g>
<g id="Three">
	<g>
		<path class="st1" d="M59.88,161.85h106.96c5.87,0,10.62-4.76,10.62-10.62v-4.78c0-5.87-4.76-10.62-10.62-10.62H59.88v-13.16    h106.96c5.87,0,10.62-4.76,10.62-10.62v-5.37c0-5.87-4.76-10.62-10.62-10.62H59.88V82.88h110.07c18.8,0,27.93,10.79,27.93,25.53    c0,7.37-2.73,15.48-7.77,20.35c4.77,5.13,7.77,7.92,7.77,19.4c0.24,14.31-9.13,26.72-27.93,26.72H59.88V161.85z"/>
	</g>
</g>
</svg>